<svg width="64" height="64" viewBox="0 0 64 64" fill="none" xmlns="http://www.w3.org/2000/svg">
<path d="M32 0.000588814C23.6028 -0.0887241 15.5153 3.31528 9.51486 9.46448C3.51443 15.6137 0.0921024 24.0049 0 32.794C0.032356 39.74 2.16711 46.4964 6.09764 52.093C10.0282 57.6896 15.5522 61.8383 21.8764 63.9433C23.4764 64.2478 24.0582 63.2429 24.0582 62.3599V56.7878C15.1564 58.767 13.2655 52.4031 13.2655 52.4031C12.6729 50.4054 11.413 48.6976 9.71636 47.5922C6.80727 45.5826 9.94909 45.613 9.94909 45.613C10.9546 45.7537 11.9167 46.1309 12.7631 46.7162C13.6095 47.3016 14.3183 48.0799 14.8364 48.9929C15.7391 50.6314 17.2205 51.8334 18.9615 52.3402C20.7025 52.8471 22.5641 52.6182 24.1455 51.7028C24.3081 50.0354 25.0295 48.4821 26.1818 47.3182C19.0836 46.4961 11.6364 43.6948 11.6364 31.1194C11.5729 27.839 12.7309 24.6615 14.8655 22.2587C13.8933 19.4424 14.0081 16.3404 15.1855 13.6112C15.1855 13.6112 17.8909 12.7282 23.9127 16.9606C29.1546 15.4986 34.6709 15.4986 39.9127 16.9606C46.0218 12.7282 48.64 13.6112 48.64 13.6112C49.8174 16.3404 49.9321 19.4424 48.96 22.2587C51.1441 24.6174 52.3649 27.7737 52.3636 31.0585C52.3636 43.6643 44.8582 46.4352 37.8182 47.2573C38.589 48.0406 39.1845 48.993 39.5617 50.046C39.939 51.099 40.0887 52.2263 40 53.3471V62.3295C40 63.3952 40.5818 64.2478 42.1818 63.9128C48.488 61.7948 53.9935 57.6451 57.9118 52.0564C61.8302 46.4678 63.961 39.726 64 32.794C63.9079 24.0049 60.4856 15.6137 54.4851 9.46448C48.4847 3.31528 40.3972 -0.0887241 32 0.000588814Z" fill="#333333"/>
</svg>
