<svg width="64" height="64" viewBox="0 0 64 64" fill="none" xmlns="http://www.w3.org/2000/svg">
<path d="M22.9303 45.8834V24.48H15.8126V45.8857H22.928L22.9303 45.8834ZM19.3714 21.5543C21.8514 21.5543 23.3989 19.9086 23.3989 17.8537C23.3531 15.7554 21.8514 14.1577 19.4217 14.1577C16.9829 14.1577 15.3943 15.7577 15.3943 17.8537C15.3943 19.9109 16.9394 21.5566 19.328 21.5566L19.3714 21.5543ZM48.5874 45.8834V33.6114C48.5874 27.0354 45.0766 23.9749 40.3977 23.9749C36.6171 23.9749 34.9257 26.0549 33.984 27.5109V24.4754H26.8686C26.9623 26.4869 26.8686 45.8834 26.8686 45.8834H33.984V33.9291C33.984 33.2891 34.0297 32.6491 34.2171 32.1966C34.7291 30.9166 35.9017 29.5931 37.8651 29.5931C40.4411 29.5931 41.4766 31.5543 41.4766 34.432V45.8857H48.5897L48.5874 45.8834ZM32 0C49.6731 0 64 14.3246 64 32C64 49.6731 49.6731 64 32 64C14.3246 64 0 49.6731 0 32C0 14.3246 14.3246 0 32 0Z" fill="#333333"/>
</svg>
